<svg width="1920" height="1719" viewBox="0 0 1920 1719" fill="none" xmlns="http://www.w3.org/2000/svg">
<g opacity="0.24" filter="url(#filter0_f)">
<path fill-rule="evenodd" clip-rule="evenodd" d="M2051.48 -647.938C2428.85 -653.873 2472.42 -231.667 2772.98 -75.3666C3062.17 75.0173 3624.38 -6.83319 3738.23 229.219C3851.91 464.914 3358.63 634.491 3226.88 865.736C3107.43 1075.38 3223.27 1336.08 3010.02 1507.35C2776.1 1695.22 2409.12 1841.5 2051.48 1809.74C1699.79 1778.5 1548.29 1491.27 1258.08 1351.76C960.262 1208.6 510.733 1204.51 337.1 985.597C157.067 758.611 158.369 444.612 368.385 230.034C571.596 22.4085 1063.26 98.437 1353.66 -53.0468C1656.58 -211.06 1670.72 -641.95 2051.48 -647.938Z" fill="#61F6BF"/>
<path fill-rule="evenodd" clip-rule="evenodd" d="M1538.06 746.636C1840.71 783.783 2101.8 886.043 2353.83 1006.59C2610.88 1129.54 2886.47 1250.19 3005.84 1448.67C3130.21 1655.48 3082.06 1884.53 3013.31 2103.17C2937.25 2345.08 2873.08 2612.27 2591.23 2767.24C2304.91 2924.68 1898.68 2962.02 1538.06 2914.35C1209.82 2870.96 1011.55 2660.34 744.095 2523.06C482.298 2388.68 127.614 2322.52 -10.5452 2119.49C-155.114 1907.04 -79.9163 1661.09 2.78402 1433.66C91.2087 1190.49 171.441 913.458 477.875 776.331C781.336 640.535 1181.19 702.832 1538.06 746.636Z" fill="#33D3D3"/>
<path fill-rule="evenodd" clip-rule="evenodd" d="M-501.656 -380.932C-244.286 -329.568 -40.1715 -221.059 186.977 -123.602C435.869 -16.816 740.596 42.3902 889.216 215.815C1055.66 410.036 1131.87 651.698 1035.96 867.082C939.344 1084.06 627.42 1205 381.152 1356.79C99.8734 1530.16 -123.134 1815.31 -501.656 1814.82C-880.208 1814.32 -1117.33 1539.72 -1382.01 1354.47C-1601.22 1201.05 -1828.6 1045.07 -1900.05 836.12C-1968.17 636.925 -1813.71 446.395 -1761.43 244.969C-1697.66 -0.753357 -1855.56 -325.741 -1560.48 -472.347C-1265.37 -618.968 -851.74 -450.799 -501.656 -380.932Z" fill="#08B2E5"/>
</g>
<defs>
<filter id="filter0_f" x="-2101.1" y="-832" width="6040.21" height="3949.69" filterUnits="userSpaceOnUse" color-interpolation-filters="sRGB">
<feFlood flood-opacity="0" result="BackgroundImageFix"/>
<feBlend mode="normal" in="SourceGraphic" in2="BackgroundImageFix" result="shape"/>
<feGaussianBlur stdDeviation="92" result="effect1_foregroundBlur"/>
</filter>
</defs>
</svg>
