<svg id="Group_3_copy" data-name="Group 3 copy" xmlns="http://www.w3.org/2000/svg" xmlns:xlink="http://www.w3.org/1999/xlink" viewBox="0 0 240.83 231.13"><defs><style>.cls-1{fill:#68f5be;}.cls-2{fill:#08b1e4;}.cls-3{fill:none;}.cls-12,.cls-4{stroke:#000;stroke-miterlimit:10;}.cls-4{fill:url(#linear-gradient);}.cls-5{fill:url(#linear-gradient-2);}.cls-6{fill:url(#linear-gradient-3);}.cls-7{fill:url(#linear-gradient-4);}.cls-8{fill:url(#linear-gradient-5);}.cls-9{fill:#fff;}.cls-10{fill:url(#linear-gradient-6);}.cls-11{fill:url(#linear-gradient-7);}.cls-12{fill:url(#linear-gradient-8);}</style><linearGradient id="linear-gradient" x1="188.27" y1="296.59" x2="188.27" y2="87.4" gradientUnits="userSpaceOnUse"><stop offset="0" stop-color="#08b1e4"/><stop offset="1" stop-color="#68f5be"/></linearGradient><linearGradient id="linear-gradient-2" x1="186.63" y1="228.75" x2="224.35" y2="228.75" gradientUnits="userSpaceOnUse"><stop offset="0" stop-color="#a39d5f"/><stop offset="0.1" stop-color="#aba46a"/><stop offset="0.27" stop-color="#c0b788"/><stop offset="0.49" stop-color="#e2d6b7"/><stop offset="0.6" stop-color="#f4e6d0"/><stop offset="0.68" stop-color="#f2dfba"/><stop offset="0.8" stop-color="#efd79f"/><stop offset="0.92" stop-color="#eed28f"/><stop offset="1" stop-color="#edd089"/></linearGradient><linearGradient id="linear-gradient-3" x1="198.66" y1="204.37" x2="271.61" y2="204.37" xlink:href="#linear-gradient-2"/><linearGradient id="linear-gradient-4" x1="152.88" y1="137.76" x2="273.84" y2="137.76" xlink:href="#linear-gradient-2"/><linearGradient id="linear-gradient-5" x1="103.28" y1="190.83" x2="178.02" y2="190.83" xlink:href="#linear-gradient-2"/><linearGradient id="linear-gradient-6" x1="121.95" y1="228.65" x2="121.95" y2="138.64" gradientUnits="userSpaceOnUse"><stop offset="0" stop-color="#6aedc1"/><stop offset="0.3" stop-color="#73c5d1"/><stop offset="0.97" stop-color="#8960f8"/><stop offset="1" stop-color="#8a5cfa"/></linearGradient><linearGradient id="linear-gradient-7" x1="78.51" y1="202.7" x2="78.51" y2="162.52" gradientUnits="userSpaceOnUse"><stop offset="0" stop-color="#fff"/><stop offset="0.32" stop-color="#dcd9c1"/><stop offset="0.64" stop-color="#bdb98c"/><stop offset="0.87" stop-color="#aaa56b"/><stop offset="1" stop-color="#a39d5f"/></linearGradient><linearGradient id="linear-gradient-8" x1="36.37" y1="117.62" x2="49.13" y2="95.53" xlink:href="#linear-gradient"/></defs><g id="Shape_1_Image" data-name="Shape 1 Image"><path class="cls-1" d="M241,306.81a6.25,6.25,0,0,1-4.79-2.14,7,7,0,0,1,.1-8.71,5.59,5.59,0,0,1,2.35-1.59,6.37,6.37,0,0,1,2.3-.41,8,8,0,0,1,4.6,1.52,10.11,10.11,0,0,0,6,1.8h15.27q12,0,24.09,0h0a6.64,6.64,0,0,1,.77.05c.32,0,.64,0,.95,0a2.58,2.58,0,0,0,2.62-1.6c.61-1.46-.38-2.62-1.09-3.46l-.43-.53-24.43-32.27q-18.78-24.8-37.55-49.61a8.07,8.07,0,0,0-6.78-3.66c-3.55-.07-5.8-2.28-6-5.92s1.87-6.13,5.58-7a8.48,8.48,0,0,1,1.79-.22c2.43,0,4.09,1.44,5.06,4.39a31.28,31.28,0,0,0,5.27,9.26q22.1,29.1,44.15,58.21l22.65,29.89c.83,1.1,1.73,2.15,2.41,2.93,1.27,1.43,2.18,2.65,1.47,4.22-.58,1.34-1.79,1.44-3.7,1.45H276.49v0h-13.4l-11,0h0a11,11,0,0,0-6.76,1.9A7.71,7.71,0,0,1,241,306.81Z" transform="translate(-67.5 -76.43)"/><path d="M226.32,193.85c1.43,0,3.22.44,4.34,3.88a32.09,32.09,0,0,0,5.4,9.48Q258,236.1,279.9,265l23,30.29c.86,1.12,1.76,2.17,2.46,3,1.47,1.68,1.77,2.44,1.34,3.43s-1,1-3,1H277.24l-1.5,0H262.89l-10.75,0H252a11.81,11.81,0,0,0-7.1,2,6.91,6.91,0,0,1-4,1.31,5.48,5.48,0,0,1-4.22-1.88,6.32,6.32,0,0,1,.09-7.72,5,5,0,0,1,2.07-1.4,5.87,5.87,0,0,1,2-.35,7.42,7.42,0,0,1,4.18,1.38,10.79,10.79,0,0,0,6.45,1.94h15.14c7.94,0,16.15,0,24.25,0,.2,0,.44,0,.69,0s.66.06,1,.06A3.29,3.29,0,0,0,296,296c.77-1.89-.47-3.36-1.22-4.24a6.25,6.25,0,0,1-.4-.5l-24.13-31.86-37.86-50a8.77,8.77,0,0,0-7.36-3.95c-3.16-.06-5.09-2-5.29-5.21s1.62-5.43,5-6.2a7.69,7.69,0,0,1,1.63-.2m0-1.5a8.73,8.73,0,0,0-2,.24c-4.09.93-6.4,3.83-6.16,7.75s2.66,6.54,6.76,6.62a7.33,7.33,0,0,1,6.2,3.36q31,41,62,81.88c.73,1,2,2,1.43,3.26a1.83,1.83,0,0,1-1.93,1.13c-.57,0-1.17-.1-1.7-.1h0c-13.12.05-26.24,0-39.36,0a9.33,9.33,0,0,1-5.6-1.67,8.84,8.84,0,0,0-5-1.65,7.24,7.24,0,0,0-2.55.45,6.46,6.46,0,0,0-2.66,1.8,7.77,7.77,0,0,0-.11,9.69,6.93,6.93,0,0,0,5.36,2.41A8.45,8.45,0,0,0,245.8,306a10.24,10.24,0,0,1,6.24-1.76h.09l10.76,0h14.35v0h26.24c1.75,0,3.69,0,4.54-1.89s-.31-3.57-1.59-5c-.82-.94-1.63-1.9-2.38-2.89q-33.41-44.06-66.8-88.1a30.94,30.94,0,0,1-5.16-9c-1.11-3.37-3.06-4.91-5.77-4.91Z" transform="translate(-67.5 -76.43)"/><path class="cls-2" d="M244.8,168.8a6.07,6.07,0,0,1-5-2.32,6.7,6.7,0,0,1-1.15-2.52c-.82-3.62.8-6.57,4.22-7.69a11.88,11.88,0,0,0,6.21-4.62q13.05-17.7,26.13-35.36l17.51-23.68c.17-.23.36-.45.56-.68.86-1,2-2.33,1.06-4a2.8,2.8,0,0,0-2.58-1.25c-.34,0-.7,0-1.05,0a8.59,8.59,0,0,1-.86,0c-3.87,0-7.74,0-11.61,0H254.58c-3.36,0-6.71,0-10.07,0h0a11.12,11.12,0,0,0-6.73,2,7.69,7.69,0,0,1-2.24,1.08l-.46.13a7.14,7.14,0,0,1-1.6.18,6.25,6.25,0,0,1-4.87-2.21,7,7,0,0,1,0-8.45,6.21,6.21,0,0,1,4.86-2.22,7.45,7.45,0,0,1,4.3,1.4,11.49,11.49,0,0,0,7,2h55.45a19.7,19.7,0,0,1,2.24.1,3.62,3.62,0,0,1,2.79,1.45,3.57,3.57,0,0,1-.22,3.09,25.47,25.47,0,0,1-2.75,4.28l-.21.28q-24,32.53-48.13,65.05a11.67,11.67,0,0,0-2.74,7.62c.11,3.7-2.14,6.15-5.89,6.39Z" transform="translate(-67.5 -76.43)"/><path d="M233.48,77.93a6.67,6.67,0,0,1,3.86,1.27,12.27,12.27,0,0,0,7.46,2.08h55.44a18.17,18.17,0,0,1,2.16.1,2.87,2.87,0,0,1,2.23,1.06,2.83,2.83,0,0,1-.25,2.41A24.94,24.94,0,0,1,301.71,89l-.22.29c-14.1,19.08-30.84,41.73-48.13,65.05a12.52,12.52,0,0,0-2.88,8.09c.1,3.29-1.84,5.39-5.19,5.61l-.49,0a5.36,5.36,0,0,1-4.42-2,5.87,5.87,0,0,1-1-2.22c-.74-3.26.65-5.81,3.72-6.81a12.82,12.82,0,0,0,6.59-4.89c8.7-11.82,17.58-23.81,26.16-35.41l17.48-23.64c.14-.19.32-.4.52-.62.83-1,2.39-2.74,1.14-4.91a3.41,3.41,0,0,0-3.23-1.62c-.38,0-.75,0-1.11,0s-.57,0-.79,0c-3.88,0-7.75,0-11.63,0H254.55c-3.94,0-7.13,0-10,0h-.08a11.75,11.75,0,0,0-7.08,2.09,7.23,7.23,0,0,1-2,1l-.37.11a6.81,6.81,0,0,1-1.49.17,5.49,5.49,0,0,1-4.29-1.94,6.33,6.33,0,0,1,0-7.5,5.49,5.49,0,0,1,4.28-1.94m0-1.5A7,7,0,0,0,228,78.92a7.8,7.8,0,0,0,0,9.4,7,7,0,0,0,5.45,2.49,8.1,8.1,0,0,0,2.27-.33h0a8.54,8.54,0,0,0,2.46-1.18,10.29,10.29,0,0,1,6.23-1.83h.07l10,0h23.67q5.82,0,11.62,0c.59,0,1.27-.1,1.91-.1a2,2,0,0,1,1.93.87c.9,1.56-.72,2.74-1.57,3.89q-21.81,29.53-43.64,59.05a11.28,11.28,0,0,1-5.84,4.35c-3.92,1.28-5.61,4.65-4.72,8.57a7.34,7.34,0,0,0,1.28,2.8,6.84,6.84,0,0,0,5.61,2.62l.59,0c4-.26,6.72-2.91,6.59-7.16a10.92,10.92,0,0,1,2.59-7.15q24.09-32.5,48.13-65a27.32,27.32,0,0,0,3-4.7c1.4-3.06.14-5.19-3.16-5.59a20.26,20.26,0,0,0-2.34-.11H244.8A10.68,10.68,0,0,1,238.21,78a8.22,8.22,0,0,0-4.73-1.54Z" transform="translate(-67.5 -76.43)"/><path class="cls-2" d="M188.13,152c-1.17,0-2.49-1-4.16-3.31l-24.21-32.91q-2.61-3.57-5.24-7.12c-4.12-5.57-8.37-11.33-12.47-17.07a8.89,8.89,0,0,0-7.92-4.21H134c-7.55.07-15.2.08-21.68.08H99.35l-11.11,0c-.28,0-.58,0-.89-.06s-.75-.07-1.11-.07A2.74,2.74,0,0,0,83.52,89c-.69,1.54.37,2.8,1.14,3.71.18.22.35.43.5.63q10.77,14.88,21.6,29.72l5.95,8.18.29.37a6.12,6.12,0,0,1,.55.77,11.1,11.1,0,0,0,.81,1.21c1.11,1.48,1.31,2,.5,2.73a3.55,3.55,0,0,1-2.38.89,5.08,5.08,0,0,1-3.19-1.27,14.4,14.4,0,0,1-2.34-2.76l-.39-.55q-12.18-16.7-24.35-33.42L74.76,88.93c-.37-.5-.72-1-1-1.46-1.23-2-1.6-3.6-1-4.61s2-1.53,4.25-1.55q6.06,0,12.13,0h27l7.46,0c5.21,0,9.23,0,13-.1h.22c3.41,0,5.79,1.26,7.95,4.23,10.37,14.26,21,28.7,31.27,42.66l8,10.83c1.89,2.57,2.93,3.91,4.29,3.91s2.47-1.38,4.32-3.81c.62-.82,1.27-1.62,1.92-2.42,2.77-3.42,5.62-7,6.27-12,.46-3.54,4.22-3.92,5.81-3.92l.64,0a5.69,5.69,0,0,1,5.47,4.12,6,6,0,0,1,.27,1.34c.29,2.92-.49,6.19-3.54,6.62-5.25.72-7.87,4.17-10.41,7.5l-.63.83-.65.83c-1.74,2.25-3.54,4.58-5.35,6.84S189.29,152,188.13,152Z" transform="translate(-67.5 -76.43)"/><path d="M136.77,82c3.19,0,5.32,1.14,7.35,3.92,10.35,14.25,21,28.67,31.23,42.62l8,10.88c1.87,2.53,3.1,4.21,4.9,4.21s2.92-1.48,4.92-4.11c.61-.8,1.27-1.62,1.9-2.4,2.83-3.5,5.76-7.11,6.44-12.35.37-2.84,3.33-3.26,5.06-3.26l.6,0a5,5,0,0,1,4.8,3.61,5.36,5.36,0,0,1,.24,1.18c.12,1.24.28,5.35-2.91,5.79-5.55.77-8.26,4.34-10.89,7.79-.21.28-.42.56-.64.83l-.71.93c-1.72,2.22-3.49,4.51-5.27,6.74-1.57,2-2.77,2.92-3.67,2.92s-2.06-1-3.55-3L169.65,128l-9.28-12.61q-2.62-3.57-5.26-7.12c-4.11-5.57-8.36-11.32-12.45-17a9.67,9.67,0,0,0-8.53-4.53H134c-7.56.07-15.22.08-21.71.08H99.41l-11.17,0c-.23,0-.52,0-.82-.06s-.77-.07-1.18-.07a3.4,3.4,0,0,0-3.41,2c-.88,2,.46,3.55,1.26,4.5.16.2.33.39.47.58,7.16,9.89,14.46,19.92,21.52,29.63l6,8.29.29.37a5.63,5.63,0,0,1,.47.65,10.82,10.82,0,0,0,.88,1.32c1,1.35.93,1.42.6,1.71a2.79,2.79,0,0,1-1.88.71,4.37,4.37,0,0,1-2.71-1.09,14,14,0,0,1-2.21-2.63c-.13-.18-.26-.37-.4-.55L83,99l-7.18-9.87-.48-.65c-.36-.48-.7-.94-1-1.4-1.06-1.7-1.43-3.11-1-3.86s1.7-1.14,3.59-1.16c3.59,0,7.44,0,12.15,0h27l7.46,0c5.21,0,9.23,0,13-.1h.21m0-1.5h-.23c-4.34.08-8.67.1-13,.1-5,0-9.94,0-14.92,0H107.3l-18.21,0q-6.07,0-12.15,0c-5.23,0-6.63,2.83-3.84,7.31.46.74,1,1.43,1.52,2.14Q90.28,111.52,106,133a18.42,18.42,0,0,0,2.86,3.45,5.79,5.79,0,0,0,3.67,1.44,4.3,4.3,0,0,0,2.87-1.08c1.91-1.67-.31-3.32-1.15-4.87a11.29,11.29,0,0,0-.88-1.21q-13.78-18.94-27.55-37.9c-.78-1.07-2.19-2.2-1.57-3.59a2,2,0,0,1,2-1.14c.67,0,1.38.13,2,.13l11.17,0h12.84c7.24,0,14.48,0,21.72-.08h.16a8.16,8.16,0,0,1,7.31,3.9c5.81,8.14,11.8,16.13,17.72,24.19l24.21,32.91c1.78,2.42,3.25,3.62,4.76,3.62s3-1.16,4.84-3.49c2-2.54,4-5.11,6-7.68,2.79-3.62,5.2-7.31,10.55-8.05,3.48-.49,4.53-4,4.19-7.43a7.16,7.16,0,0,0-.3-1.49,6.48,6.48,0,0,0-6.15-4.65l-.68,0c-3.19,0-6.12,1.27-6.55,4.57-.77,6-4.79,9.73-8.05,14-1.78,2.34-2.76,3.51-3.72,3.51s-1.93-1.21-3.69-3.6c-13.1-17.81-26.24-35.6-39.24-53.49-2.24-3.07-4.78-4.54-8.56-4.54Z" transform="translate(-67.5 -76.43)"/><path class="cls-1" d="M73.42,303.14c-1.93,0-3-.51-3.68-1.74s0-2.29,1-3.61q7.59-9.82,15.19-19.63,16.71-21.62,33.4-43.25c1.84-2.39,4.39-3.2,7.29-3.94a4.2,4.2,0,0,1,1.05-.18,1,1,0,0,1,.91.43c.36.49.18.88-.53,1.81-3,4-6.35,8.34-10.48,13.69l-8.17,10.55c-8.52,11-17.33,22.41-26,33.64a8.3,8.3,0,0,1-.72.78c-.91.93-2.28,2.34-1.23,4.15a3.1,3.1,0,0,0,2.87,1.42c.41,0,.82,0,1.24-.07s.71-.06,1-.06c3.71,0,7.4,0,11.09,0h11.05l5.74,0,6.94,0c3.64,0,6.64,0,9.42.08h.24a9,9,0,0,0,7.66-3.9c12-15.55,24.31-31.3,36.19-46.54l8.45-10.85.37-.48c.32-.42.64-.84,1-1.24,1.28-1.41,2.42-2.1,3.5-2.1s2.22.73,3.43,2.23c7.16,8.86,13.59,16.9,19.65,24.59a14.83,14.83,0,0,0,7.38,5.51c3.12.94,4.68,4,3.88,7.54a6,6,0,0,1-6.15,4.84l-.55,0c-3-.2-5.92-2-5.8-5.63.14-4.09-1.8-6.82-4-9.48q-4.37-5.39-8.68-10.81-2.81-3.51-5.63-7c-1.53-1.91-2.46-3-3.63-3s-2.06,1.07-3.54,3l-9.08,11.63c-11.16,14.3-22.71,29.08-34,43.68-2.2,2.86-4.43,3.92-8.21,3.92h-.31c-10.85-.16-21.45-.31-32-.31-10,0-18.93.13-27.22.41Z" transform="translate(-67.5 -76.43)"/><path d="M127.65,231.54c.21,0,.25.05.3.12l0,.05a3.56,3.56,0,0,1-.57.87c-3,4-6.35,8.35-10.47,13.68l-8.11,10.5c-8.54,11-17.37,22.44-26,33.7a9.42,9.42,0,0,1-.65.71c-.94,1-2.68,2.74-1.35,5.05A3.73,3.73,0,0,0,84.34,298c.45,0,.88,0,1.3-.07s.69-.06,1-.06h0c3.19,0,6.6,0,11.06,0h11.06l5.71,0,7,0c3.65,0,6.64,0,9.42.08h.26a9.7,9.7,0,0,0,8.26-4.19c12-15.59,24.36-31.38,36.27-46.66L184,236.37l.37-.48c.33-.43.64-.83,1-1.19,1.12-1.23,2.11-1.86,3-1.86s1.8.66,2.84,1.95c7.15,8.84,13.58,16.88,19.65,24.58a15.73,15.73,0,0,0,7.75,5.77c2.76.83,4.08,3.45,3.37,6.65a5.24,5.24,0,0,1-5.42,4.26l-.5,0c-2.42-.16-5.22-1.53-5.1-4.86.15-4.34-1.87-7.2-4.14-10-2.91-3.57-5.84-7.24-8.67-10.79q-2.81-3.53-5.63-7c-1.47-1.83-2.63-3.27-4.22-3.27s-2.71,1.43-4.13,3.25q-4.57,5.85-9.14,11.71c-11.15,14.27-22.67,29-33.91,43.61-2.06,2.67-4.05,3.62-7.61,3.62h-.3c-10.83-.16-21.43-.31-32-.31-10,0-19,.13-27.27.41h-.42c-1.89,0-2.56-.52-3-1.36s-.2-1.32.93-2.78q7.62-9.87,15.25-19.72c10.94-14.14,22.25-28.76,33.34-43.17,1.69-2.19,4.11-3,6.88-3.67a3.7,3.7,0,0,1,.86-.15m0-1.5a4.93,4.93,0,0,0-1.24.2c-2.92.75-5.69,1.61-7.69,4.21q-24.24,31.49-48.59,62.88c-1,1.31-2,2.73-1,4.43s2.5,2.13,4.34,2.13h.47c9.07-.3,18.15-.41,27.22-.41,10.66,0,21.32.15,32,.31h.32c4,0,6.42-1.12,8.8-4.21,14.26-18.5,28.67-36.89,43-55.31,1.39-1.78,2.17-2.67,2.95-2.67s1.6.9,3.05,2.71c4.78,5.94,9.5,11.93,14.31,17.84,2.15,2.64,3.93,5.17,3.8,9s2.78,6.16,6.5,6.41l.6,0a6.74,6.74,0,0,0,6.88-5.43c.85-3.8-.73-7.31-4.39-8.42-3.1-.95-5.11-2.86-7-5.26q-9.75-12.36-19.66-24.59c-1.36-1.68-2.67-2.51-4-2.51s-2.65.79-4.06,2.35c-.5.56-.94,1.17-1.4,1.76q-22.35,28.68-44.64,57.39a8.25,8.25,0,0,1-7.07,3.61h-.23c-3.15-.06-6.3-.08-9.45-.08-4.22,0-8.44,0-12.66,0H97.7c-3.68,0-7.37,0-11,0h0c-.71,0-1.51.13-2.27.13a2.3,2.3,0,0,1-2.22-1c-1-1.73,1-2.9,1.89-4.1q17-22.14,34.13-44.19,5.27-6.83,10.48-13.69c.59-.77,1.3-1.69.54-2.72a1.77,1.77,0,0,0-1.51-.73Z" transform="translate(-67.5 -76.43)"/><line class="cls-3" x1="171.69" y1="218.4" x2="170.87" y2="217.23"/><path class="cls-4" d="M293.14,292.2q-31-41-62-81.88A7.33,7.33,0,0,0,225,207c-4.1-.08-6.52-2.78-6.76-6.62s2.07-6.82,6.16-7.75l14.83-25.66a7.34,7.34,0,0,1-1.28-2.8c-.89-3.92.8-7.29,4.72-8.57a11.28,11.28,0,0,0,5.84-4.35q21.78-29.57,43.64-59.05c.85-1.15,2.47-2.33,1.57-3.89-.74-1.29-2.51-.77-3.84-.77-7.74,0-15.48,0-23.23,0-7.36,0-14.73,0-22.1,0a10.34,10.34,0,0,0-6.3,1.83,8.54,8.54,0,0,1-2.46,1.18h0l-22.34,34.17a7.16,7.16,0,0,1,.3,1.49c.34,3.43-.71,6.94-4.19,7.43-5.35.74-7.76,4.43-10.55,8.05-2,2.57-4,5.14-6,7.68-3.74,4.7-6.08,4.66-9.6-.13l-24.21-32.91c-5.92-8.06-11.91-16.05-17.72-24.19a8.19,8.19,0,0,0-7.47-3.9c-15.24.14-30.48,0-45.73.09-1.4,0-3.29-.66-4,1-.62,1.39.79,2.52,1.57,3.59q13.74,19,27.55,37.9a11.29,11.29,0,0,1,.88,1.21c.84,1.55,3.06,3.2,1.15,4.87l10.94,16.83a4.94,4.94,0,0,1,2.25-.5c5.09,0,6.15,6.24,3.19,8.86l20.81,32-23.38,36.74c.76,1,.05,1.95-.54,2.72q-5.2,6.87-10.48,13.69Q101.06,269.28,84,291.37c-.92,1.2-2.89,2.37-1.89,4.1.9,1.57,3,.9,4.53.91,7.37.06,14.74,0,22.11,0s14.74-.1,22.11,0a8.28,8.28,0,0,0,7.3-3.61q22.23-28.75,44.64-57.39c.46-.59.9-1.2,1.4-1.76,2.86-3.15,5.39-3.16,8.07.16q9.9,12.24,19.66,24.59c1.9,2.4,3.91,4.31,7,5.26,3.66,1.11,5.24,4.62,4.39,8.42l15,21.54a8.24,8.24,0,0,1,7.58,1.2,9.33,9.33,0,0,0,5.6,1.67c13.12,0,26.24,0,39.36,0,1.27,0,3,.58,3.66-1C295.1,294.17,293.87,293.17,293.14,292.2Z" transform="translate(-67.5 -76.43)"/></g><g id="Layer_3_Image" data-name="Layer 3 Image"><path class="cls-5" d="M217.83,250.61a6.43,6.43,0,0,1-6.37-6.63,6.92,6.92,0,0,0-1.55-4.43c-4.26-5.63-8.81-11.66-13.23-17.66a4.66,4.66,0,0,0-3.77-2.11,7.07,7.07,0,0,1-4.91-2.43,6.21,6.21,0,0,1-1.33-4.64,6.69,6.69,0,0,1,6.47-5.82h.4c3.63.26,6,3.21,6,7.36-.59,1.65.4,3,1.06,3.82,4.25,5.6,8.79,11.61,13.24,17.65a4.42,4.42,0,0,0,3.85,2,7.14,7.14,0,0,1,5,2.17,6.21,6.21,0,0,1,1.6,4.54,6.66,6.66,0,0,1-6.47,6.19Z" transform="translate(-67.5 -76.43)"/><path d="M193.14,207.52h.35c3.31.23,5.43,2.82,5.44,6.63-.62,1.91.51,3.4,1.19,4.3,4.26,5.61,8.81,11.63,13.23,17.64a5.09,5.09,0,0,0,4.34,2.24,6.47,6.47,0,0,1,4.6,2,5.55,5.55,0,0,1,1.43,4.09,6,6,0,0,1-5.88,5.59,5.76,5.76,0,0,1-5.76-6,7.56,7.56,0,0,0-1.67-4.8c-4.27-5.64-8.82-11.69-13.22-17.66a5.31,5.31,0,0,0-4.22-2.37,6.34,6.34,0,0,1-4.48-2.2,5.55,5.55,0,0,1-1.2-4.17,6,6,0,0,1,5.85-5.26m0-1.25a7.28,7.28,0,0,0-7.09,6.37c-.44,4,2.38,7.38,6.81,7.76a4.06,4.06,0,0,1,3.32,1.86c4.36,5.92,8.79,11.8,13.23,17.67a6.31,6.31,0,0,1,1.42,4.06,7,7,0,0,0,7,7.24h0a7.23,7.23,0,0,0,7.09-6.78c.19-4-2.79-7.2-7.24-7.36a3.83,3.83,0,0,1-3.37-1.73q-6.54-8.88-13.24-17.66c-.79-1-1.44-2-.94-3.32.07-4.58-2.6-7.82-6.6-8.1Z" transform="translate(-67.5 -76.43)"/><path class="cls-6" d="M265.13,282.1a6.3,6.3,0,0,1-.75-.05,6.65,6.65,0,0,1-5.71-7.11c1.24-2.31-.19-4.09-1.46-5.66l-.44-.55-16.65-21.39c-13-16.72-26.45-34-39.78-50.92-2.23-2.83-2.24-4.78,0-7.71,7.62-10.17,15.32-20.54,22.77-30.58q6.81-9.18,13.65-18.37c1.31-1.75,2.34-3.42,1.8-6.18a5.34,5.34,0,0,1,1-4.15,6.87,6.87,0,0,1,4.59-2.73,5.11,5.11,0,0,1,.78,0,6.56,6.56,0,0,1,5.4,10.18,5.09,5.09,0,0,1-3.41,2.28c-3.31.57-4.85,2.65-6.34,4.67l-6.89,9.28c-8.85,11.93-18,24.26-27.08,36.33-1.73,2.29-1.7,3.84.1,6.14C220.34,213,234.19,230.78,247.58,248L261,265.28c1.53,2,3,3.81,6,4.35a5.19,5.19,0,0,1,3.45,2.29,6.55,6.55,0,0,1-5.39,10.18Z" transform="translate(-67.5 -76.43)"/><path d="M244.87,127.27a5.94,5.94,0,0,1,4.88,9.22,4.47,4.47,0,0,1-3,2c-3.56.6-5.25,2.89-6.74,4.9l-6.92,9.33c-8.84,11.91-18,24.23-27,36.29-1.92,2.54-1.89,4.34.11,6.89,13.71,17.48,27.58,35.31,41,52.55l13.31,17.12.08.09c1.53,2,3.12,4,6.43,4.57a4.55,4.55,0,0,1,3,2,5.92,5.92,0,0,1-4.87,9.2,5,5,0,0,1-.67,0,6,6,0,0,1-5.17-6.33c1.31-2.61-.36-4.69-1.59-6.22l-.43-.54q-8.38-10.74-16.73-21.48c-13-16.69-26.4-33.94-39.71-50.82-2.06-2.62-2.07-4.24,0-7,7.59-10.14,15.27-20.48,22.7-30.47q6.85-9.24,13.72-18.47c1.35-1.81,2.5-3.67,1.92-6.68a4.65,4.65,0,0,1,.87-3.66,6.17,6.17,0,0,1,4.17-2.48,5.21,5.21,0,0,1,.69,0m0-1.25a6.22,6.22,0,0,0-.86.06c-3.74.49-6.82,3.93-6.1,7.62.48,2.46-.4,4-1.69,5.69C224.07,155.7,212,172.06,199.8,188.33c-2.25,3-2.49,5.26,0,8.48,18.92,24,37.63,48.19,56.43,72.3,1.4,1.79,3.07,3.41,1.77,5.65a7.3,7.3,0,0,0,6.25,7.91,5.78,5.78,0,0,0,.83.05,7.24,7.24,0,0,0,6.94-5.63c.78-3.52-1.24-7.45-4.89-8.08-2.88-.5-4.23-2.28-5.73-4.2Q234.32,230,207.14,195.14c-1.63-2.08-1.66-3.29-.09-5.37,11.4-15.15,22.67-30.4,34-45.62,1.54-2.08,2.95-3.91,5.95-4.42,3.63-.62,5.64-4.6,4.84-8.11a7.27,7.27,0,0,0-6.94-5.6Z" transform="translate(-67.5 -76.43)"/><path class="cls-7" d="M188.82,181.23c-.86,0-1.87-.75-3-2.25-7.31-9.71-14.86-19.75-22.21-29.68a6.49,6.49,0,0,0-5.19-3.13,5.75,5.75,0,0,1-4-2.11,6.47,6.47,0,0,1-1.48-4.85,6.67,6.67,0,0,1,6.46-5.82h.42a6.68,6.68,0,0,1,4.51,2.24,6,6,0,0,1,1.45,4.37,7.57,7.57,0,0,0,1.78,5.49c3.08,4.08,6.13,8.16,9.19,12.24L186,170.07l.29.4a4,4,0,0,0,2.32,1.89l.41.11,46-62.79c.62-.84,1.27-1.67,1.91-2.49a45.84,45.84,0,0,0,4-5.77c1.32-2.4,3-3.42,5.49-3.42q.54,0,1.14.06c.91.09,1.89.13,3.08.13.74,0,1.49,0,2.23,0l2.21,0h1.14l.82,0a8.74,8.74,0,0,0,6.71-2.47,4.83,4.83,0,0,1,3.48-1.4A6.83,6.83,0,0,1,272,96.4a6.33,6.33,0,0,1,.51,8.4,7.24,7.24,0,0,1-5.32,2.75,3.73,3.73,0,0,1-2.71-1c-2.5-2.46-5.23-2.61-7.88-2.75-.8,0-1.62-.09-2.43-.2a15.14,15.14,0,0,0-2.08-.14c-4.24,0-7.32,1.89-10.63,6.55-11.17,15.71-22.79,31.5-34,46.77Q200.71,165.85,194,175a33.78,33.78,0,0,0-2.22,3.53C190.76,180.31,189.76,181.23,188.82,181.23Z" transform="translate(-67.5 -76.43)"/><path d="M267.23,94.92h0a6.23,6.23,0,0,1,4.31,1.91,5.67,5.67,0,0,1,.46,7.58,6.56,6.56,0,0,1-4.83,2.51,3.12,3.12,0,0,1-2.27-.86c-2.67-2.63-5.65-2.79-8.28-2.94-.79,0-1.6-.08-2.38-.19a16.62,16.62,0,0,0-2.17-.15c-5.53,0-8.62,3.28-11.14,6.82-11.17,15.7-22.78,31.49-34,46.76q-6.71,9.12-13.4,18.25a37.53,37.53,0,0,0-2.25,3.58c-.9,1.56-1.77,2.42-2.45,2.42s-1.52-.71-2.5-2c-7.3-9.71-14.85-19.74-22.2-29.67-1.44-1.93-2.88-3.18-5.65-3.38a5.09,5.09,0,0,1-3.59-1.88,5.87,5.87,0,0,1-1.34-4.38,6,6,0,0,1,5.84-5.27l.37,0a6,6,0,0,1,4.09,2,5.34,5.34,0,0,1,1.29,3.92,8.19,8.19,0,0,0,1.91,5.91q4.64,6.13,9.23,12.28t9.22,12.28l.28.39a4.61,4.61,0,0,0,2.67,2.14l.82.22.51-.69L233.33,113l2.16-3c.61-.83,1.26-1.67,1.89-2.47a45.74,45.74,0,0,0,4.09-5.86c1.22-2.2,2.65-3.09,4.95-3.09.33,0,.7,0,1.08.05a29.08,29.08,0,0,0,3.14.14l2.25,0q1.1,0,2.19,0h2a9.29,9.29,0,0,0,7.15-2.65,4.24,4.24,0,0,1,3-1.21m0-1.25a5.49,5.49,0,0,0-3.92,1.57A8.08,8.08,0,0,1,257,97.53h-2c-1.48,0-3,.06-4.44.06-1,0-2,0-3-.13q-.63-.06-1.2-.06c-2.68,0-4.55,1.05-6,3.74-1.62,2.92-3.91,5.47-5.9,8.19l-45.72,62.45c-1.24-.33-1.69-1.3-2.27-2.07-6.17-8.18-12.28-16.38-18.45-24.56a7,7,0,0,1-1.66-5.07,6.9,6.9,0,0,0-6.54-7.28l-.46,0a7.28,7.28,0,0,0-7.08,6.38,6.85,6.85,0,0,0,6.08,7.65c2.34.17,3.5,1.21,4.74,2.88q11,14.9,22.21,29.69c1.25,1.67,2.4,2.5,3.49,2.5s2.36-1,3.53-3a35.47,35.47,0,0,1,2.18-3.47c15.84-21.65,31.87-43.17,47.42-65,2.86-4,5.68-6.29,10.12-6.29a15.79,15.79,0,0,1,2,.14c3.48.47,6.89-.24,9.95,2.78a4.39,4.39,0,0,0,3.15,1.22,7.8,7.8,0,0,0,5.81-3,6.93,6.93,0,0,0-.55-9.22,7.43,7.43,0,0,0-5.2-2.29Z" transform="translate(-67.5 -76.43)"/><path class="cls-8" d="M126.42,287.34H126c-5.85-.25-12-.47-18.37-.65h-.45c-1.8,0-2.93-.12-3.49-1.49a4.84,4.84,0,0,1,.86-5c2.91-3.74,5.8-7.51,8.69-11.27l5.94-7.72,7.32-9.48c14.39-18.66,29.27-38,44-56.89,1.62-2.06,1.23-3.35-.12-5.15-4.27-5.7-8.54-11.55-12.67-17.2-2.43-3.32-4.85-6.64-7.29-9.95q-21.2-28.77-42.43-57.5l-.42-.58-.69-.94c-1.26-1.67-1.59-3-1-4.21.5-1,1.52-1.18,3-1.18h4.52c.61,0,1.23,0,1.84,0,.26,0,.52,0,.78,0a7.51,7.51,0,0,0,5.72-2.23,5.42,5.42,0,0,1,3.88-1.61,6.61,6.61,0,0,1,4.89,2.31,6.48,6.48,0,0,1-4.75,10.72,6.76,6.76,0,0,1-4.34-1.66c-1.68-1.4-2.31-1.93-4-1.93-.59,0-1.31.06-2.3.15L114,104l9.87,13.42c5.3,7.21,10.52,14.3,15.75,21.38l6.38,8.65c9.93,13.46,20.19,27.38,30.39,41,2.19,2.94,2.18,4.9,0,7.77-16.22,20.8-32.59,42.05-48.43,62.6q-6.82,8.85-13.65,17.71c-.49.64-1,1.31-1.51,2.09l-.93,1.31-.57.79,1,.18a55.36,55.36,0,0,0,10.24.78l2.23,0h0a3,3,0,0,0,2.43-1.59c.11-.15.21-.3.33-.44L137,267.87c6.05-7.48,12.32-15.22,18.51-22.79a5.53,5.53,0,0,0,1.19-4.16,6.45,6.45,0,0,1,6-7h.41a6.66,6.66,0,0,1,6.45,5.83,6.4,6.4,0,0,1-1.44,4.79,6.27,6.27,0,0,1-4.44,2.23,5.87,5.87,0,0,0-4.65,2.69q-6.75,8.43-13.52,16.82-7.92,9.83-15.81,19.67A3.72,3.72,0,0,1,126.42,287.34Z" transform="translate(-67.5 -76.43)"/><path d="M125.57,94.94A6,6,0,0,1,130,97.05a5.85,5.85,0,0,1-4.29,9.67,6.16,6.16,0,0,1-3.94-1.51c-1.7-1.42-2.48-2.08-4.35-2.08-.62,0-1.35.07-2.36.15l-2.22.2,1.32,1.79,9.28,12.6c5.28,7.18,10.48,14.25,15.68,21.3l6.35,8.61c9.94,13.48,20.22,27.41,30.43,41.05,2,2.71,2,4.35,0,7-16.22,20.81-32.59,42.06-48.42,62.61l-13.65,17.71c-.51.65-1,1.33-1.53,2.11l-.93,1.3-1.13,1.58,1.91.38a56.78,56.78,0,0,0,10.35.78l2.23,0h0a3.52,3.52,0,0,0,2.89-1.85l.31-.41,9.6-11.85c6-7.47,12.3-15.2,18.49-22.76a6.11,6.11,0,0,0,1.33-4.58,5.83,5.83,0,0,1,5.41-6.36l.37,0a6,6,0,0,1,5.83,5.28,5.75,5.75,0,0,1-1.3,4.32,5.67,5.67,0,0,1-4,2,6.53,6.53,0,0,0-5.1,2.93q-6.75,8.43-13.53,16.83c-5.19,6.44-10.54,13.09-15.8,19.66a3.1,3.1,0,0,1-2.8,1.18H126c-5.87-.25-12-.46-18.37-.64h-.46c-1.81,0-2.53-.14-2.92-1.1a4.17,4.17,0,0,1,.78-4.38c2.9-3.75,5.84-7.57,8.68-11.26l5.95-7.74L127,252c14.37-18.64,29.24-37.91,43.93-56.81,1.85-2.36,1.36-4-.11-5.92-4.27-5.7-8.54-11.54-12.67-17.2q-3.63-5-7.28-9.94c-14.17-19.24-28.54-38.69-42.44-57.5l-.42-.58-.69-.94c-1.47-2-1.24-3-.95-3.56s.95-.84,2.45-.84h4.52c.7,0,1.28,0,1.81,0l.81,0a8.18,8.18,0,0,0,6.15-2.42,4.89,4.89,0,0,1,3.46-1.43m0-1.25a6.12,6.12,0,0,0-4.33,1.79A6.9,6.9,0,0,1,116,97.54l-.75,0c-.62,0-1.25,0-1.87,0l-2.73,0h-1.79c-1.43,0-2.88.16-3.57,1.53-.83,1.67,0,3.4,1.07,4.87.38.5.74,1,1.11,1.51q21.22,28.74,42.43,57.5c6.66,9,13.22,18.16,20,27.15,1.22,1.63,1.54,2.6.13,4.4q-25.75,33.12-51.31,66.37c-4.88,6.32-9.73,12.68-14.63,19a5.44,5.44,0,0,0-1,5.62c.81,2,2.72,1.84,4.5,1.89q9.18.26,18.36.64h.5a4.35,4.35,0,0,0,3.78-1.65c9.75-12.19,19.57-24.31,29.33-36.49a5.31,5.31,0,0,1,4.2-2.46,6.91,6.91,0,0,0,6.46-7.71,7.26,7.26,0,0,0-7.07-6.39l-.46,0a7.08,7.08,0,0,0-6.57,7.66,4.91,4.91,0,0,1-1.05,3.74c-9.41,11.5-18.73,23.08-28.09,34.61-.6.74-1.08,1.8-2.23,1.8h0c-4-.09-8,0-12.36-.8,1-1.38,1.68-2.41,2.43-3.38,20.66-26.79,41.27-53.63,62.07-80.31,2.49-3.2,2.36-5.44.06-8.52-12.34-16.49-24.54-33.08-36.77-49.65-8.22-11.14-16.41-22.29-25-33.9,1-.08,1.69-.15,2.25-.15,1.41,0,1.88.4,3.55,1.79a7.38,7.38,0,0,0,4.74,1.8,7.1,7.1,0,0,0,5.22-11.75,7.25,7.25,0,0,0-5.35-2.53Z" transform="translate(-67.5 -76.43)"/></g><g id="O_Image" data-name="O Image"><path d="M123,129.75c7.56,1.67,15,3.71,21.35,8.4,10.18,7.49,17.55,16.95,20.76,29.36a11.75,11.75,0,0,0,.46,1.42,5.34,5.34,0,0,0,.7.87L180.62,164a24.54,24.54,0,0,1,3.14-1.22c4.38-1.12,5.73-.07,5.78,4.41,0,1.81,0,3.62,0,6.12,2.86-2.33,4.85-4.47,7.28-5.82,3.44-1.9,7.08-4,10.87-4.62,11.32-1.92,19.31,4.92,21.07,17.48a80.74,80.74,0,0,1,.7,10.07c.11,10.5,0,21,.16,31.49.08,5.3,1.38,6.59,6.26,6.84,2.31.12,4,.64,3.87,3.35s-2,2.77-4,2.77q-14.43,0-28.86,0c-2,0-3.81-.05-3.76-2.84,0-2.42,1.19-3.18,3.51-3.28,6.33-.26,7.14-.94,7.2-7.29.11-12,.2-24-.21-36-.34-9.92-6.29-13.26-15.26-8.83a40.59,40.59,0,0,0-7.55,5.44,4.24,4.24,0,0,0-1.24,2.92c0,12.5,0,25,.15,37.48.07,4.85,1.49,6.1,6.42,6.24,2.4.07,4.22.35,4.17,3.38s-2.27,2.73-4.24,2.74c-9.37,0-18.74,0-28.11,0-2.21,0-4-.17-4-3.09,0-2.63,1.65-2.92,3.73-3,4.34-.23,6-1.58,6.09-5.89.15-14.12.14-28.24-.11-42.35-.09-4.92-1.91-5.75-6.1-4.1-.74,7.14-.61,14.26-2.31,20.91-5.45,21.19-18.73,34.76-40.61,39.17a3.32,3.32,0,0,0-1,.53H109.5c-.71-.21-1.41-.49-2.13-.64C87.66,232.43,75.12,220.49,69,201.63c-1.07-3.28-1-6.91-1.51-10.38V175.5c.55-3.7.62-7.56,1.75-11.07,3.51-10.9,10.38-19.38,19.7-26,7.09-5,15.18-7.2,23.55-8.69ZM237.32,233.17l.61-1.43a18.05,18.05,0,0,0-3.28-1.27c-4.93-.86-6.57-2.36-6.68-7.3-.26-11.36-.22-22.72-.48-34.08a58.1,58.1,0,0,0-1.17-11.49c-2.59-11.46-13-16.7-23.56-11.47-4.47,2.22-8.17,6-12.21,9.12-.79.61-1.51,1.32-3,2.62V163.35l-23.06,9c-2.76-13.13-9.23-23.58-19.63-31.57-10.67-8.18-22.83-10.59-35.72-8.45-19.39,3.21-37.95,20.86-38.67,35.88,4.7-2.47,9.54-4.79,14.12-7.55a12.7,12.7,0,0,0,4.6-4.86c4.23-8.49,9.82-15.38,19.45-17.89,16.12-4.19,30.35,3.86,36.14,20.48,4.15,11.92,4.43,24.24,3.32,36.65A49.21,49.21,0,0,1,141.67,216a28.38,28.38,0,0,1-48.61,1.14c-1.82-2.8-3.07-6-4.61-8.95-.45-.86-.84-2.09-1.57-2.4-5.32-2.25-10.71-4.3-16.35-6.52a11.51,11.51,0,0,0,.11,2c6.54,23.59,32,38.64,55.84,33A49.81,49.81,0,0,0,165,186.14c.05-3.73,0-7.46,0-11.1,7.32-2.17,10.35-1,10.45,4.49q.38,21.53.06,43.05c-.08,5.78-1.64,7-7.23,8.1a10.73,10.73,0,0,0-2.64,1.33l.49.9h32.37l.35-1.32a23.93,23.93,0,0,0-4.44-1.19c-3.66-.27-5.76-2.06-6.27-5.68a38.38,38.38,0,0,1-.61-5.2q-.07-17.06,0-34.12c0-1.26.3-3.05,1.15-3.7,3.62-2.77,7.21-5.95,11.36-7.6,8.42-3.37,14.68.53,15.15,9.55.66,12.7.76,25.45.59,38.17-.08,6.8-1.56,7.79-8.5,8.91a10.31,10.31,0,0,0-2.62,1.26l.47,1c.86,0,1.72.14,2.58.14ZM134.53,182.65c-.37-4-.56-8-1.15-11.91-2.06-13.71-9.17-21.58-21-23.46-11-1.74-18.12,2.48-22,12.28a21.42,21.42,0,0,0-1.24,6.23c-.53,7.32-1.33,10.26-1.4,17.59a153.55,153.55,0,0,0,1.54,18.76c1.26,8.2,4.72,14.49,12.56,16.89,11,3.36,22.51-1.85,27.82-12.68C133.37,198.88,134.32,190.87,134.53,182.65ZM97.38,219.76c10.57,13.48,33.28,11.34,42.68-4.41a48.61,48.61,0,0,0,6.48-21.69c1-13.06.65-26-4.83-38.24s-16.05-18.17-29.36-16.5a23.69,23.69,0,0,0-15.43,8.33c2.55-.62,4.1-1,5.65-1.36,13.23-3,25.79,3.38,30.15,16.05a61.91,61.91,0,0,1-.67,43.29c-4.18,10.92-12.77,16.46-24.44,16.18C104.09,221.32,100.59,220.3,97.38,219.76ZM70.87,172.57c-2.32,2.3-1.52,8-1.71,12.11a47.07,47.07,0,0,0,.76,8.92,3.75,3.75,0,0,0,1.68,2.58c5.17,2.22,10.44,4.21,16.28,6.52a92.64,92.64,0,0,1-.12-39" transform="translate(-67.5 -76.43)"/><path d="M261.86,237c-9.69-2.38-17.32-7.41-22.14-16.44-8.45-15.85-5.58-39,6.9-50.38,9.2-8.36,20.24-10.25,31.76-5.84,10.63,4.07,15.52,12.82,16.5,23.87.4,4.44.06,4.74-4.33,4.74q-18.56,0-37.11,0h-3.2a.9.9,0,0,0-.89.77c-2,14.74,10.73,28.94,24.65,27.53,7.86-.8,11.81-6.14,14.82-12.71.41-.9,1.56-1.46,2.58-2.08a.92.92,0,0,1,1.24.31,38.85,38.85,0,0,1,2.09,3.58c.21.43-.22,1.18-.38,1.79-3.43,12.77-11.27,21.22-24.12,24.76ZM291.16,208c-.5,1-1.06,2-1.5,3-7.07,16.23-26.27,15.93-35.91,3.22-4.27-5.64-6-12.19-6.8-19.1-.37-3.1.57-3.95,3.55-3.92,12.87.11,25.74.05,38.62.05h3.16a.92.92,0,0,0,.91-.95,28.74,28.74,0,0,0-.23-3.75c-1.83-10.54-7.11-18.58-17.85-21.29-11.46-2.9-22-.46-29.77,9-9.19,11.22-10.19,24.37-6.87,37.88,3.07,12.56,12.58,21.16,23.15,22.7,17.23,2.5,28.42-11.08,31.26-24.26" transform="translate(-67.5 -76.43)"/><path class="cls-9" d="M237.32,233.17H207.74c-.86,0-1.72-.09-2.58-.14l-.47-1a10.31,10.31,0,0,1,2.62-1.26c6.94-1.12,8.42-2.11,8.5-8.91.17-12.72.07-25.47-.59-38.17-.47-9-6.73-12.92-15.15-9.55-4.15,1.65-7.74,4.83-11.36,7.6-.85.65-1.14,2.44-1.15,3.7q-.12,17.06,0,34.12a38.38,38.38,0,0,0,.61,5.2c.51,3.62,2.61,5.41,6.27,5.68a23.93,23.93,0,0,1,4.44,1.19l-.35,1.32H166.14l-.49-.9a10.73,10.73,0,0,1,2.64-1.33c5.59-1.1,7.15-2.32,7.23-8.1q.33-21.53-.06-43.05c-.1-5.5-3.13-6.66-10.45-4.49,0,3.64,0,7.37,0,11.1a49.81,49.81,0,0,1-38.52,48.15c-23.85,5.61-49.3-9.44-55.84-33a11.51,11.51,0,0,1-.11-2c5.64,2.22,11,4.27,16.35,6.52.73.31,1.12,1.54,1.57,2.4,1.54,3,2.79,6.15,4.61,8.95A28.38,28.38,0,0,0,141.67,216a49.21,49.21,0,0,0,6.45-20.93c1.11-12.41.83-24.73-3.32-36.65-5.79-16.62-20-24.67-36.14-20.48-9.63,2.51-15.22,9.4-19.45,17.89a12.7,12.7,0,0,1-4.6,4.86c-4.58,2.76-9.42,5.08-14.12,7.55.72-15,19.28-32.67,38.67-35.88,12.89-2.14,25.05.27,35.72,8.45,10.4,8,16.87,18.44,19.63,31.57l23.06-9v14.52c1.47-1.3,2.19-2,3-2.62,4-3.1,7.74-6.9,12.21-9.12,10.55-5.23,21,0,23.56,11.47a58.1,58.1,0,0,1,1.17,11.49c.26,11.36.22,22.72.48,34.08.11,4.94,1.75,6.44,6.68,7.3a18.05,18.05,0,0,1,3.28,1.27Z" transform="translate(-67.5 -76.43)"/><path class="cls-10" d="M97.38,219.76c3.21.54,6.71,1.56,10.23,1.65,11.67.28,20.26-5.26,24.44-16.18a61.91,61.91,0,0,0,.67-43.29c-4.36-12.67-16.92-19.05-30.15-16.05-1.55.35-3.1.74-5.65,1.36a23.69,23.69,0,0,1,15.43-8.33c13.31-1.67,23.87,4.22,29.36,16.5s5.8,25.18,4.83,38.24a48.61,48.61,0,0,1-6.48,21.69C130.66,231.1,108,233.24,97.38,219.76Z" transform="translate(-67.5 -76.43)"/><path class="cls-11" d="M87.76,163.65a92.64,92.64,0,0,0,.12,39c-5.84-2.31-11.11-4.3-16.28-6.52a3.75,3.75,0,0,1-1.68-2.58,47.07,47.07,0,0,1-.76-8.92c.19-4.16-.61-9.81,1.71-12.11,4.3-4.28,10.55-6.6,16-9.73C87.21,162.72,88.24,161.83,87.76,163.65Z" transform="translate(-67.5 -76.43)"/><path class="cls-9" d="M292.88,210.51c-2.84,13.18-14,26.76-31.26,24.26-10.57-1.54-20.08-10.14-23.15-22.7-3.32-13.51-2.32-26.66,6.87-37.88,7.76-9.45,18.31-11.89,29.77-9,10.74,2.71,16,10.75,17.85,21.29a43.79,43.79,0,0,1,.27,4.7h-4.11c-12.88,0-25.75.06-38.62-.05-3,0-3.92.82-3.55,3.92.84,6.91,2.53,13.46,6.8,19.1,9.64,12.71,28.84,13,35.91-3.22.44-1,1-2,1.5-3M247.27,187.1c9.89,0,19.56,0,29.22-.08.52,0,1.4-1,1.48-1.68.9-6.87-5-14.67-11.9-15.91C256.53,167.73,247.9,175.48,247.27,187.1Z" transform="translate(-67.5 -76.43)"/><path d="M247.27,187.1c.63-11.62,9.26-19.37,18.8-17.67,6.91,1.24,12.8,9,11.9,15.91-.08.64-1,1.68-1.48,1.68C266.83,187.12,257.16,187.1,247.27,187.1Zm28.53-2c.18-7.92-5-13.69-11.85-14.13-7.49-.48-14.74,7.49-14.49,14.13Z" transform="translate(-67.5 -76.43)"/></g><g id="Layer_7" data-name="Layer 7"><circle class="cls-12" cx="42.75" cy="106.57" r="12.75"/></g></svg>