<?xml version="1.0" encoding="utf-8"?>
<!-- Generator: Adobe Illustrator 26.0.0, SVG Export Plug-In . SVG Version: 6.00 Build 0)  -->
<svg version="1.1" id="Layer_1" xmlns="http://www.w3.org/2000/svg" xmlns:xlink="http://www.w3.org/1999/xlink" x="0px" y="0px"
	 viewBox="0 0 1920 1719" style="enable-background:new 0 0 1920 1719;" xml:space="preserve">
<style type="text/css">
	.st0{opacity:0.24;}
	.st1{fill-rule:evenodd;clip-rule:evenodd;fill:#61F6BF;}
	.st2{fill-rule:evenodd;clip-rule:evenodd;fill:#33D3D3;}
	.st3{fill-rule:evenodd;clip-rule:evenodd;fill:#08B2E5;}
</style>
<g class="st0">
	<path class="st1" d="M2051.5-647.9c377.4-5.9,420.9,416.3,721.5,572.6C3062.2,75,3624.4-6.8,3738.2,229.2
		c113.7,235.7-379.6,405.3-511.4,636.5c-119.4,209.6-3.6,470.3-216.9,641.6c-233.9,187.9-600.9,334.2-958.5,302.4
		c-351.7-31.2-503.2-318.5-793.4-458c-297.8-143.2-747.3-147.2-921-366.2c-180-227-178.7-541,31.3-755.6
		C571.6,22.4,1063.3,98.4,1353.7-53C1656.6-211.1,1670.7-642,2051.5-647.9z"/>
	<path class="st2" d="M1538.1,746.6c302.6,37.1,563.7,139.4,815.8,260c257,123,532.6,243.6,652,442.1
		c124.4,206.8,76.2,435.9,7.5,654.5c-76.1,241.9-140.2,509.1-422.1,664.1c-286.3,157.4-692.5,194.8-1053.2,147.1
		c-328.2-43.4-526.5-254-794-391.3c-261.8-134.4-616.5-200.5-754.6-403.6c-144.6-212.4-69.4-458.4,13.3-685.8
		c88.4-243.2,168.7-520.2,475.1-657.3C781.3,640.5,1181.2,702.8,1538.1,746.6z"/>
	<path class="st3" d="M-501.7-380.9C-244.3-329.6-40.2-221.1,187-123.6c248.9,106.8,553.6,166,702.2,339.4
		C1055.7,410,1131.9,651.7,1036,867.1c-96.6,217-408.5,337.9-654.8,489.7c-281.3,173.4-504.3,458.5-882.8,458
		c-378.6-0.5-615.7-275.1-880.4-460.3c-219.2-153.4-446.6-309.4-518-518.3c-68.1-199.2,86.3-389.7,138.6-591.2
		c63.8-245.7-94.1-570.7,201-717.3C-1265.4-619-851.7-450.8-501.7-380.9z"/>
</g>
</svg>
